# xmcd
#
# Track frame offsets:
# 150
# 17518
# 32917
# 49052
# 63894
# 83589
# 104046
# 122264
# 139227
# 158567
# 176170
# 194590
#
# Disc length: 2758 seconds
#
#
# Revision: 0
# Processed by: cddbd v1.5.1PL2 Copyright (c) Steve Scherf et al.
# Submitted via: FreeRIP 2.945 
#
DISCID=9b0ac40c
DTITLE=Edson e Vinicius - Edson e Vinicius
DYEAR=1900
DGENRE=Sertaneja
TTITLE0=Pra vocês
TTITLE1=Pode chorar
TTITLE2=Declaração
TTITLE3=Me dê uma chance
TTITLE4=Chove em meu olhar
TTITLE5=Teu olhar
TTITLE6=Nas asas do amor
TTITLE7=Se bebo e choro
TTITLE8=Medo de amar
TTITLE9=Gamado nessa mulher
TTITLE10=Não dá pra ficar
TTITLE11=Problema dobrado
EXTD=
EXTT0=
EXTT1=
EXTT2=
EXTT3=
EXTT4=
EXTT5=
EXTT6=
EXTT7=
EXTT8=
EXTT9=
EXTT10=
EXTT11=
PLAYORDER=
